<svg xmlns="http://www.w3.org/2000/svg" enable-background="new 0 0 3000 3000" viewBox="0 0 3000 3000" id="joyful-girl-listening-music"><switch><g><g><g><g><g><path fill="#c3c3d1" d="M569.267,1089.654c-150.181,295.502-107.266,655.168,39.607,1049.379l894.829-559.223
							C1373.28,1206.898,1338.05,852.76,1464.096,530.43L569.267,1089.654z"></path></g><g><path fill="#eef" d="M569.63,1087.583c182.821,366.224,175.77,717.897,39.742,1053.233l894.829-559.223
							c127.272-299.413,99.338-658.295-39.742-1053.234L569.63,1087.583z"></path></g></g><g><g><path d="M2209.931,2838.341c-159.822-53.982-186.061-230.651-593.965-515.284
							c-329.778-230.118-803.88-353.338-491.392-552.089c214.687-136.549,261.629,125.274,720.391,466.209
							c248.827,184.92,430.739,269.212,539.1,338.615C2510.492,2656.765,2411.838,2906.537,2209.931,2838.341z" opacity=".1"></path><path fill="#d9d9d9" d="M1508.883,1765.262c41.927,142.386-413.935,212.711-486.061,138.514
							c-47.604-48.971,4.079-170.608-23.944-354.185c-23.325-152.801-89.118-301.29-102.183-386.879
							c-14.492-94.937,33.118-188.554,118.371-232.758c49.788-25.815,149.363-77.446,199.151-103.261
							c63.716-33.037,145.539,5.749,151.868,77.243c11.445,129.288,15.373,406.91,49.466,593.799
							C1434.72,1602.812,1503.855,1748.184,1508.883,1765.262z"></path><path fill="#d9d9d9" d="M908.008,1015.667c-45.106,17.09-58.914,65.221-44.795,111.346
							c39.246,128.218,133.747,364.611,205.185,456.081c24.88,31.856,53.468,7.296,103.871-44.508
							c107.982-110.985,162.177-431.25,162.177-431.25c-30.043,12.556-75.015-2.775-85.867-32.431l-125.513,260.707
							c0,0-76.401-201.712-101.868-268.949C1004.024,1021.321,953.346,998.488,908.008,1015.667L908.008,1015.667z"></path></g><g><g><g><path fill="#4153c1" d="M1277.726,1799.747c80.033,119.69,221.47,205.361,522.334,371.967
									c79.342,43.937,111.722-76.24,90.57-102.348c-50.229-62.002-462.905-506.813-541.005-529.753
									C1267.012,1515.349,1210.606,1699.368,1277.726,1799.747z"></path></g><g><path fill="#fff" d="M2522.655,2494.404l-11.239-12.049c2.099,2.25,2.514,6.116,0.37,12.195
									c-1.206,3.424-3.262,7.569-5.968,12.204c-15.514,26.559-28.178,40.845-49.076,55.846
									c-36.121,25.93-50.6,25.946-85.906,39.161c-48.321,18.055-109.57,48.308-121.85,35.143l11.239,12.05
									c12.28,13.166,73.53-17.088,121.85-35.143c35.307-13.215,49.786-13.231,85.906-39.161
									c20.898-15.001,33.562-29.287,49.076-55.845c2.706-4.634,4.763-8.781,5.969-12.205
									C2525.169,2500.52,2524.755,2496.655,2522.655,2494.404z"></path></g><g><path fill="#3a50b0" d="M2192.685,2451.893c0,0-64.831,82.993-74.656,117.838
									c27.126,16.031,55.828,34.194,86.263,55.144c28.557-2.569,106.911-91.068,52.687-130.953
									C2236.487,2481.664,2214.885,2467.427,2192.685,2451.893z"></path><path fill="#f33" d="M2292.773,2600.611l-41.182,37.811c-6.039-2.391-18.546-14.074-16.489-41.188l7.755-57.621
									L2292.773,2600.611z"></path><path fill="#f0c7ad" d="M2157.228,2570.245l27.009-111.097c35.023,29.496,103.419,69.231,158.151,95.522
									l-69.485,68.654L2157.228,2570.245z"></path><path fill="#4b67e3" d="M2204.293,2624.876c-251.916-197.784-458.825-213.977-525.524-347.307
									c-31.961-63.89,36.337-196.983,84.828-159.858c75.342,57.681,339.268,284.027,493.384,376.212
									C2229.608,2488.688,2174.349,2589.958,2204.293,2624.876z"></path><path fill="#4b67e3" d="M1118.975,1899.198c88.766,112.986,271.544,164.157,556.233,371.376
									c47.282,34.415,133.634-105.823,92.758-148.869c-40.5-42.648-317.247-298.006-470.276-416.834
									c-54.128-42.031-97.784-71.392-118.579-75.749C1094.926,1611.481,1044.531,1804.441,1118.975,1899.198z"></path></g><path fill="#fff" d="M2278.095,2779.892c-5.412,0.245-10.8,0.276-15.978,0.052
								c-38.875-1.691-65.207-17.08-73.204-23.48c-12.674-10.118-9.765-27.198-34.219-43.341
								c-25.282-16.682-50.495-28.892-49.753-35.791l-1.856,17.264c-0.742,6.898,24.471,19.109,49.752,35.79
								c24.455,16.144,21.545,33.224,34.219,43.342c7.999,6.399,34.329,21.789,73.205,23.479c5.179,0.225,10.565,0.193,15.977-0.052
								c30.392-1.374,61.658-9.466,62.402-16.379l1.857-17.264C2339.752,2770.426,2308.488,2778.517,2278.095,2779.892z"></path><path fill="#f33" d="M2161.298,2678.943l-55.177,1.647c-10.753-17.896,7.496-41.115,14.658-66.251l40.519-15.127
								V2678.943z"></path><g><path fill="#2f3c8c" d="M2126.224,2484.009c0,0-86.328,40.769-109.888,67.768
									c17.667,26.556,32.742,57.111,51.313,89.578c26.809,10.441,134.75-34.28,102.742-94.429
									C2157.106,2526.73,2139.664,2507.918,2126.224,2484.009z"></path><path fill="#f0c7ad" d="M2053.759,2585.583l78.076-97.295c22.865,36.969,80.339,138.726,109.078,190.271
									l-111.949-5.093L2053.759,2585.583z"></path><path fill="#4153c1" d="M2067.649,2641.355c-120.74-211.085-246.845-295.347-277.663-398.377
									c-9.306-31.112,13.441-48.527-16.288-117.811c27.46-48.433,107.495-72.418,117.909-54.115
									c47.44,83.38,178.873,323.993,278.785,475.874C2147.944,2529.986,2055.415,2596.527,2067.649,2641.355z"></path></g><g><path fill="#f33" d="M2278.095,2779.892c-5.413,0.245-10.8,0.277-15.978,0.051
									c-38.875-1.69-65.207-17.079-73.204-23.479c-12.674-10.118-9.765-27.197-34.219-43.342
									c-21.693-14.312-43.334-25.333-48.573-32.531c-0.556-0.764,7.241-23.27,8.618-23.56
									c14.805,11.554,50.849,18.996,73.874,13.342c27.174-6.672,33.306-26.737,40.67-21.118
									c22.233,16.967,110.294,101.729,111.22,113.832C2341.041,2770.089,2309.113,2778.489,2278.095,2779.892z"></path></g><g><path fill="#f33" d="M2505.818,2506.753c-15.514,26.559-28.179,40.845-49.076,55.846
									c-36.121,25.93-50.6,25.946-85.906,39.161c-55.006,20.553-126.766,56.913-123.971,27.038
									c0.087-0.941-6.124-17.938-1.837-18.496c18.458,7.265,50.705-15.406,58.078-34.631c7.156-18.658,0.297-41.146,5.117-44.246
									c41.27,10.419,165.49-62.438,202.81-49.448c3.055,1.064,3.022,6.139,0.754,12.573
									C2510.581,2497.973,2508.525,2502.12,2505.818,2506.753z"></path></g><g><g><g><g><g><g><g><g><g><path fill="#deb8a0" d="M1649.803,1685.715c-3.753,21.464,3.675,44.804,12.06,54.481
																	c15.657,18.068,19.368,49.66,19.72,81.793c0.649,59.308-69.474,56.842-88.258,47.831
																	c-13.193-6.329,9.448-34.629-4.837-63.154c-7.858-15.69-23.472-44.237-16.507-66.505
																	c1.812-5.795,1.616-40.928,2.842-59.967L1649.803,1685.715z"></path><path fill="#deb8a0" d="M1556.437,1800.694c0.154,14.333,4.653,30.055,5.697,49.351
																	c0.431,7.975,12.333,6.11,19.007-1.845c5.832-6.951,3.252-29.107,4.035-39.72c1.632-4.55,2.887-9.355,3.356-11.261
																	l-15.368-54.228C1561.12,1764.768,1556.318,1789.627,1556.437,1800.694z"></path></g><path fill="#ba65eb" d="M1286.655,887.708c16.602,83.447,93.616,393.994,93.616,393.994l180.677,456.382
																c27.27,11.058,92.463-18.542,94.915-38.686l-152.583-452.841c0,0-36.259-308.576-49.682-389.329
																c-8.216-49.427-57.238-81.014-105.639-68.067h0C1304.747,800.719,1277.926,843.835,1286.655,887.708z"></path><path fill="#14a1ff" d="M1546.575,1703.97l14.373,34.115c27.27,11.058,92.463-18.542,94.915-38.686
																l-11.189-32.838C1631.035,1695.376,1579.179,1717.404,1546.575,1703.97z"></path><path fill="#d68fff" d="M1551.856,1702.086c41.927,142.386-413.935,212.711-486.061,138.514
																c-47.604-48.971,4.079-170.608-23.944-354.185c-23.325-152.801-89.118-301.289-102.183-386.879
																c-14.492-94.937,33.118-188.554,118.371-232.758c49.788-25.815,149.363-77.445,199.151-103.261
																c63.716-33.037,145.539,5.749,151.868,77.243c11.445,129.287,15.373,406.91,49.466,593.799
																C1477.693,1539.636,1546.828,1685.009,1551.856,1702.086z"></path><path fill="#14a1ff" d="M1278.573,854.826c27.515-27.353,20.908-57.107-25.366-60.038
																c-15.611-0.989-233.866,61.994-225.905,73.605C1048.608,899.464,1211.508,921.498,1278.573,854.826z"></path><path fill="#d9b49c" d="M1276.348,845.004c27.515-27.353,20.908-57.108-25.365-60.038
																c-15.611-0.988-233.866,61.994-225.905,73.605C1046.382,889.642,1209.283,911.675,1276.348,845.004z"></path><path fill="#ef9907" d="M1390.595,940.57c-11.914,14.57-59.857-61.72-93.206-92.311
																c-22.766-20.883-29.672-14.468-39.201-23.087c-48.988-44.313-55.09-276.964-55.09-276.964l125.219-19.117
																c-2.998,43.463,19.697,83.228,24.517,125.618c2.687,23.625-6.859,66.404-2.264,85.332
																C1357.31,767.803,1410.138,916.67,1390.595,940.57z"></path><path fill="#f0c7ad" d="M1380.061,940.017l-47.885-14.106c0,0,2.838-27.208,8.047-40.192
																c5.441-13.563,15.233-15.665,24.109-35.288c4.688-10.363,22.72-9.765,26.708-1.706
																c4.876,9.852-20.228,51.635-20.228,51.635L1380.061,940.017z"></path><path fill="#fff" d="M1449.02,733.35l34.759,223.457c0.942,6.057-1.93,12.071-7.232,15.146l-79.65,46.186
																c-4.947,2.868-11.23-0.132-12.109-5.783l-34.759-223.457c-0.942-6.057,1.93-12.071,7.232-15.146l79.65-46.186
																C1441.857,724.699,1448.141,727.699,1449.02,733.35z"></path><path fill="#ffd3b8" d="M1454.506,979.19c-35.749,20.642-159.812,44.946-159.812,44.946
																s17.755-84.475,39.548-106.765c28.859-29.518,117.286-59.756,151.717-42.896
																c12.108,5.929,26.202,21.593,25.626,35.063C1510.633,931.783,1473.788,968.057,1454.506,979.19z"></path><polygon fill="#ffd3b8" points="1388.091 999.71 1352.481 1137.453 1259.745 1106.39 1304.021 987.451"></polygon><rect width="155.609" height="260.074" x="1083.023" y="590.709" fill="#d9b49c" transform="rotate(-8.836 1160.891 720.783)"></rect><g><path fill="#fff" d="M1278.943,996.904l-9.158-3.125c55.141-162.192,23.652-384.614,23.33-386.845
																	l9.562-1.383C1303.011,607.8,1334.844,832.47,1278.943,996.904z"></path></g><path fill="#ffd3b8" d="M1322.064,584.494c-1.967,51.11-19.174,114.574-36.163,154.942
																c-6.908,16.416,0.903,27.163-15.614,40.54c-46.744,37.859-166.033-13.056-214.074-63.947
																c-18.851-19.97-67.093-93.034-71.687-108.223c-7.943-26.26-6.532-39.798-9.905-71.267
																c-16.305-152.14,58.103-196.383,171.291-198.155c83.437-1.306,136.565,28.319,172.683,117.17
																C1324.727,470.636,1322.874,563.438,1322.064,584.494z"></path><g><path fill="#fff" d="M1428.095,1549.058c-3.914,0.597-7.728,0.279-11.442-0.955
																	c-36.448-12.181-53.868-114.12-75.913-243.16c-17.564-102.76-37.452-219.174-70.617-307.133
																	c-136.266-165.261-180.274-365.113-180.704-367.117l9.465-2.02c0.418,1.987,44.082,200.09,179.207,363.59
																	l0.794,1.374c33.656,88.919,53.704,206.191,71.389,309.679c19.79,115.835,38.487,225.263,69.441,235.6
																	c6.995,2.324,14.91-0.743,24.19-9.5c10.11-18.255-18.825-323.3-40.828-523.809l9.613-1.046
																	c13.243,120.648,55.105,515.593,37.846,531.892C1442.815,1543.745,1435.305,1547.958,1428.095,1549.058z"></path></g><path fill="#b775d9" d="M950.981,952.491c-45.106,17.09-58.914,65.221-44.795,111.346
																c39.246,128.218,133.747,364.611,205.185,456.081c24.88,31.856,53.468,7.297,103.871-44.508
																c107.982-110.985,162.177-431.25,162.177-431.25c-30.043,12.556-75.015-2.775-85.867-32.431l-125.513,260.707
																c0,0-76.401-201.712-101.868-268.949C1046.997,958.145,996.319,935.312,950.981,952.491L950.981,952.491z"></path><path fill="#ef9907" d="M1055.809,340.347c-43.096,20.715-67.495,66.773-83.555,111.813
																c-14.723,41.292-36.763,121.368-12.556,178.756c18.089,42.885,8.386,65.276,9.331,83.133
																c1.611,30.446,13.522,82.199,15.213,112.642c3.683,66.304-68.761,123.543-91.195,182.958
																c-8.469,22.429,11.006,57.454,14.454,66.783c2.255-17.688,73.514-116.692,98.103-109.792
																c34.336,8.319,51.622,59.016,78.065,56.961c34.824-2.706,72.937-80.51,61.8-204.12
																c-7.402-82.162-42.17-297.242-19.282-376.498c7.711-26.701,69.927-46.781,76.29-82.344
																c29.484,30.847,72.598,38.993,89.33,63.175c20.172,29.153,26.728,82.398,30.744,134.458
																c14.474-49.38,4.581-84.962,0.664-114.096c-5.799-43.14-68.642-88.577-114.902-105.901
																C1154.677,318.19,1107.143,315.673,1055.809,340.347z"></path><path fill="#14a1ff" d="M1370.601,1079.921c4.544-22.324,6.818-35.761,6.818-35.761
																c-30.043,12.556-75.015-2.775-85.867-32.431l-18.756,38.96C1286.769,1079.443,1339.039,1096.312,1370.601,1079.921z"></path></g></g></g></g></g></g></g></g></g></g></g><g><path fill="#f2ff42" d="M1625.564,339.814c2.722-9.515,5.269-18.291,7.659-26.528c2.391-8.238,4.628-15.94,6.758-23.34
						c2.131-7.401,4.157-14.501,6.133-21.542c1.975-7.04,3.9-14.019,5.812-21.159c1.912-7.139,3.812-14.441,5.7-22.078
						c1.889-7.638,3.767-15.616,5.561-24.024c-2.014-0.482-3.021-0.722-5.038-1.197c-1.801,8.383-3.687,16.337-5.583,23.951
						c-1.896,7.614-3.804,14.892-5.723,22.009c-1.92,7.116-3.852,14.074-5.835,21.091c-1.983,7.017-4.018,14.095-6.157,21.472
						c-2.139,7.376-4.385,15.053-6.785,23.264c-1.574,5.382-3.242,11.104-4.955,17.003c-1.412-2.14-3.312-4.125-5.66-5.852
						c-5.372-3.952-12.927-6.599-21.442-7.065c-8.515-0.467-16.381,1.314-22.184,4.501c-5.803,3.187-9.536,7.777-9.76,13.065
						c-0.224,5.288,3.106,10.296,8.627,14.194c5.521,3.898,13.224,6.692,21.744,7.402c8.52,0.71,16.248-0.823,21.902-3.956
						c4.895-2.713,8.23-6.631,9.182-11.224C1625.536,339.805,1625.547,339.809,1625.564,339.814z"></path><path fill="#0082e6" d="M957.416,181.631c0.359-6.784-2.076-13.685-6.362-19.285
						c-4.286-5.598-10.428-9.893-17.424-11.585c-6.997-1.692-13.517-0.477-18.35,2.783c-4.185,2.823-7.09,7.181-7.97,12.571
						c-0.014-0.008-0.024-0.014-0.038-0.022c-2.453,11.073-4.649,21.111-6.645,30.403c-1.996,9.292-3.795,17.84-5.455,25.935
						c-1.661,8.095-3.185,15.739-4.618,23.193c-1.433,7.454-2.776,14.719-4.047,21.999c-1.27,7.28-2.471,14.576-3.571,21.996
						c-1.101,7.419-2.105,14.967-2.906,22.586c1.701,1.104,2.549,1.657,4.242,2.765c0.813-7.623,1.826-15.177,2.935-22.604
						c1.108-7.427,2.315-14.732,3.591-22.021c1.276-7.289,2.624-14.565,4.061-22.029c1.438-7.465,2.965-15.121,4.63-23.23
						c1.664-8.109,3.466-16.672,5.465-25.98c1.321-6.151,2.739-12.668,4.251-19.556c1.162,2.761,2.691,5.424,4.642,7.843
						c4.429,5.49,10.631,9.844,17.537,11.738c6.905,1.895,13.217,0.947,17.908-2.204
						C953.982,193.776,957.057,188.415,957.416,181.631z M945.822,192.338c-3.727,2.507-8.746,3.282-14.223,1.801
						c-5.478-1.481-10.385-4.926-13.879-9.285c-3.494-4.36-5.57-9.638-5.351-14.868c0.22-5.231,2.699-9.433,6.515-12.008
						c3.816-2.575,8.966-3.519,14.501-2.164c5.535,1.355,10.403,4.762,13.808,9.189c3.405,4.427,5.35,9.874,5.072,15.232
						C951.989,185.592,949.549,189.832,945.822,192.338z"></path><path fill="#ffa900" d="M1691.805,490.64c-3.233-0.342-7.032,0.409-10.396,1.74c-3.393,1.332-6.468,3.117-9.293,5.001
						c-2.848,1.866-5.459,3.88-7.982,5.797c-5.018,3.897-9.656,7.624-14.078,10.607c-4.401,3.053-8.574,5.315-12.228,6.982
						c-1.821,0.794-3.499,1.461-4.996,2.023c-0.456,0.151-0.854,0.287-1.27,0.427c-2.371-0.018-4.744-0.045-7.107,0
						c-0.679,1.878-1.016,2.817-1.687,4.699c6.802-0.142,13.657,0,20.462,0.295c6.806,0.295,13.57,0.746,20.368,1.298
						c6.797,0.552,13.632,1.208,20.687,1.961c7.055,0.752,14.331,1.603,22.082,2.574c7.75,0.971,15.976,2.065,24.968,3.321
						c5.943,0.831,12.263,1.741,18.966,2.728c-2.462,1.412-4.774,3.198-6.776,5.411c-4.543,5.023-7.665,11.847-8.324,19.3
						c-0.659,7.453,1.265,14.126,4.895,18.884c3.631,4.758,8.97,7.598,15.182,7.363c6.212-0.235,12.129-3.504,16.697-8.585
						c4.568-5.081,7.791-11.968,8.546-19.429c0.755-7.461-1.113-14.086-4.769-18.786c-3.166-4.069-7.673-6.689-12.919-7.162
						c0.006-0.015,0.01-0.025,0.017-0.04c-10.858-1.632-20.641-3.054-29.652-4.312c-9.011-1.258-17.252-2.353-25.017-3.326
						c-7.765-0.974-15.055-1.827-22.122-2.582c-7.067-0.756-13.913-1.415-20.721-1.972c-6.588-0.539-13.146-0.971-19.737-1.273
						c2.174-0.845,4.45-1.819,6.766-3.079c5.595-2.926,11.245-6.935,16.479-10.86c5.228-3.938,10.187-7.838,14.624-10.095
						c2.212-1.108,4.233-1.824,6.212-1.998c1.97-0.169,3.988,0.029,5.844,0.527c1.817,0.548,3.526,1.228,5.009,1.947
						c1.461,0.731,2.745,1.451,3.838,2.025c2.052,1.271,3.388,1.963,3.388,1.963s-0.487-1.233-1.57-3.306
						c-0.635-0.975-1.327-2.234-2.429-3.49c-1.063-1.287-2.414-2.683-4.325-3.908C1697.536,492.079,1695.038,490.96,1691.805,490.64
						z"></path><path fill="#ff4112" d="M1682.755,941.813c1.08-4.149,1.569-9.324,1.46-14.147c-0.088-4.876-0.542-9.469-1.159-13.85
						c-0.045-0.322-0.103-0.624-0.15-0.943c0.292-0.153,0.587-0.308,0.939-0.502c0.89-0.645,2.009-1.319,3.228-2.507
						c1.232-1.14,2.613-2.633,4.011-4.873c1.396-2.228,2.851-5.258,3.893-9.406c1.073-4.122,1.535-9.237,1.389-13.992
						c-0.125-4.807-0.624-9.322-1.287-13.624c-0.663-4.302-1.49-8.392-2.267-12.348c-0.802-3.951-1.605-7.822-2.307-11.58
						c-0.673-3.778-1.396-7.428-1.831-11.029c-0.476-3.594-0.834-7.065-1.07-10.401c-0.163-3.324-0.284-6.503-0.259-9.446
						c0.039-2.939,0.156-5.64,0.298-8.052c0.017-0.199,0.03-0.361,0.047-0.555c1.06-4.154,2.139-8.38,3.241-12.699
						c-1.342-1.334-2.015-2-3.365-3.327c-2.109,8.315-4.14,16.317-6.098,24.037c-1.959,7.72-3.847,15.16-5.683,22.397
						c-1.837,7.237-3.622,14.274-5.384,21.213c-1.761,6.94-3.499,13.783-5.241,20.649c-1.743,6.866-3.491,13.754-5.277,20.787
						c-1.786,7.034-3.608,14.213-5.497,21.653c-1.889,7.441-3.845,15.144-5.893,23.21c-1.123,4.425-2.282,8.987-3.463,13.641
						c-0.627-3.245-1.558-6.433-2.869-9.385c-2.975-6.697-7.585-12.252-13.121-15.08c-5.536-2.827-10.933-2.408-15.097,0.447
						c-4.165,2.855-7.089,8.137-7.783,15.15c-0.694,7.014,0.957,14.449,4.094,20.923c3.137,6.474,7.749,12.003,13.096,15.058
						c5.347,3.055,10.437,3.035,14.439,0.402c3.466-2.28,6.033-6.624,7.256-12.424c0.039,0.044,0.068,0.078,0.109,0.124
						c2.262-8.865,4.415-17.302,6.474-25.376s4.026-15.785,5.926-23.233c1.899-7.448,3.732-14.634,5.527-21.675
						c1.796-7.04,3.554-13.937,5.306-20.809c1.083-4.245,2.171-8.511,3.256-12.766c-0.092,3.966-0.109,8.232,0.238,12.522
						c0.27,4.384,0.765,8.797,1.385,13.142c0.62,4.345,1.366,8.623,2.141,12.736c1.538,8.236,3.188,16.034,3.688,22.909
						c0.198,3.42,0.191,6.539-0.274,9.392c-0.48,2.817-1.235,5.497-2.143,7.83c-0.936,2.274-1.926,4.298-2.87,5.995
						c-0.946,1.674-1.828,3.079-2.543,4.281c-1.486,2.215-2.34,3.61-2.34,3.61s1.023-0.418,2.825-1.39
						c0.874-0.625,1.974-1.277,3.174-2.444c1.213-1.119,2.574-2.592,3.957-4.821C1680.26,949.019,1681.705,945.99,1682.755,941.813z
						 M1678.765,889.37c-0.626-3.874-1.3-7.622-1.689-11.332c-0.43-3.701-0.742-7.285-0.933-10.741
						c-0.118-3.445-0.195-6.747-0.129-9.815c0.08-3.064,0.237-5.889,0.416-8.419c0.02-0.208,0.036-0.379,0.055-0.583
						c0.853-3.346,1.714-6.72,2.587-10.145c1.3-5.095,2.637-10.338,3.995-15.66c-0.045,3.83-0.013,7.964,0.382,12.137
						c0.319,4.265,0.863,8.57,1.531,12.821c0.668,4.251,1.46,8.446,2.28,12.486c1.627,8.091,3.359,15.774,3.912,22.571
						c0.223,3.382,0.237,6.47-0.219,9.304c-0.472,2.798-1.225,5.468-2.138,7.804c-0.941,2.275-1.941,4.31-2.896,6.022
						c-0.957,1.688-1.851,3.111-2.576,4.331c-0.262,0.392-0.479,0.722-0.701,1.06c-0.537-3.429-1.13-6.768-1.712-9.992
						C1680.175,897.184,1679.42,893.223,1678.765,889.37z"></path><path fill="#0082e6" d="M815.746,567.056c-9.052-0.65-17.227-1.209-24.874-1.716
						c-7.647-0.507-14.767-0.959-21.719-1.387c-6.951-0.428-13.735-0.831-20.717-1.23c-6.982-0.399-14.162-0.796-21.913-1.205
						c-7.751-0.41-16.073-0.832-25.345-1.276c-3.434-0.164-6.908,1.263-8.094,3.324c-5.103,8.863-9.078,16.15-12.553,22.858
						c-3.475,6.708-6.46,12.844-9.331,19.314c-2.871,6.47-5.656,13.285-8.202,21.136c-3.042-2.266-7.563-4.285-13.058-5.804
						c-5.495-1.519-11.966-2.538-18.872-2.858c-9.612-0.445-18.226,0.527-24.257,2.371c-6.031,1.842-9.461,4.552-8.769,7.738
						c0.693,3.186,5.365,6.268,12.215,8.765c6.85,2.497,15.859,4.413,25.326,5.122c8.832,0.662,16.517,0.135,22.109-1.35
						c5.592-1.484,9.103-3.932,9.512-6.989c0.02,0.004,0.031,0.006,0.052,0.01c1.771-6.392,3.728-11.922,5.767-17.171
						c2.039-5.248,4.177-10.224,6.695-15.669c2.518-5.446,5.422-11.364,9.222-18.59c9.494,0.662,18.014,1.281,25.949,1.873
						c7.935,0.593,15.285,1.159,22.431,1.724c7.146,0.565,14.09,1.128,21.204,1.721c7.114,0.593,14.4,1.215,22.224,1.903
						c7.824,0.688,16.188,1.443,25.448,2.308c-4.153,9.526-7.001,16.528-9.648,23.418c-2.647,6.89-5.13,13.691-7.82,22.409
						c-2.894-2.591-7.251-4.904-12.576-6.652c-5.326-1.747-11.622-2.928-18.367-3.309c-9.388-0.532-17.849,0.565-23.831,2.667
						c-5.982,2.103-9.468,5.208-8.955,8.861c0.513,3.654,4.919,7.189,11.501,10.05c6.582,2.861,15.323,5.057,24.591,5.87
						c8.647,0.759,16.237,0.158,21.81-1.534c5.573-1.692,9.137-4.482,9.669-7.968c0.02,0.005,0.03,0.007,0.051,0.012
						c1.859-6.743,3.836-12.843,5.843-18.605c2.006-5.761,4.049-11.187,6.223-16.686c2.173-5.499,4.481-11.072,7.111-17.18
						c2.63-6.108,5.587-12.753,9.106-20.42C822.19,570.106,819.779,567.345,815.746,567.056z M807.613,588.745
						c-9.251-0.838-17.607-1.568-25.424-2.233c-7.817-0.665-15.096-1.265-22.203-1.837c-7.107-0.572-14.044-1.115-21.183-1.658
						c-7.14-0.543-14.482-1.089-22.41-1.657c-7.927-0.569-16.439-1.163-25.923-1.798c0.649-1.216,0.977-1.825,1.639-3.046
						c9.475,0.605,17.977,1.172,25.896,1.716c7.919,0.544,15.254,1.066,22.386,1.588c7.132,0.521,14.061,1.043,21.161,1.592
						c7.1,0.549,14.371,1.127,22.18,1.768c7.809,0.641,16.156,1.345,25.398,2.154C808.518,586.701,808.214,587.383,807.613,588.745z
						"></path><path fill="#ff4112" d="M717.422,398.43c-9.747,1.411-18.284,2.712-26.215,3.958
						c-7.931,1.246-15.257,2.439-22.587,3.667c-7.329,1.228-14.662,2.49-22.61,3.902c-7.948,1.412-16.51,2.971-26.301,4.822
						c-3.432,0.649-6.434,2.27-7.109,3.806c-2.48,5.641-5.366,10.577-8.411,15.288c-3.044,4.711-6.279,9.205-10.111,14.153
						c-3.832,4.948-8.273,10.35-14.089,16.992c-1.981-1.194-5.538-1.863-10.208-1.947c-4.669-0.084-10.448,0.415-16.928,1.524
						c-9.019,1.543-17.693,3.952-24.522,6.55c-6.83,2.598-11.817,5.387-13.253,7.852c-1.436,2.465,0.982,4.165,6.134,4.969
						c5.153,0.805,13.037,0.712,22.35-0.575c8.689-1.2,17.064-3.247,23.726-5.681c6.662-2.433,11.61-5.25,13.561-7.864
						c0.019-0.001,0.028-0.001,0.047-0.002c5.534-6.264,9.837-11.379,13.614-16.077c3.777-4.698,7.036-8.982,10.207-13.491
						c3.171-4.51,6.28-9.252,9.248-14.718c8.285-1.439,15.737-2.698,22.688-3.847c6.951-1.149,13.401-2.188,19.683-3.179
						c6.282-0.99,12.394-1.931,18.668-2.874c6.274-0.943,12.709-1.888,19.633-2.873c6.924-0.985,14.338-2.012,22.567-3.106
						c-2.297,7.296-4.881,13.121-7.785,19.079c-2.904,5.958-6.186,12.073-11.28,20.534c-2.224-1.504-5.945-2.47-10.676-2.806
						c-4.731-0.337-10.472-0.044-16.789,0.945c-8.793,1.377-17.045,3.82-23.38,6.622c-6.335,2.802-10.758,5.965-11.69,8.91
						c-0.931,2.945,1.837,5.138,7.153,6.339c5.316,1.202,13.179,1.412,22.259,0.249c8.471-1.085,16.482-3.189,22.719-5.799
						c6.237-2.611,10.696-5.725,12.175-8.723c0.019,0,0.028,0,0.047,0c4.845-7.857,8.437-14.207,11.457-19.993
						c3.02-5.786,5.477-11.01,7.66-16.444c2.183-5.433,4.125-11.088,5.429-17.452C724.923,399.091,721.532,397.835,717.422,398.43z"></path></g></g></g></g></switch></svg>